<svg xmlns="http://www.w3.org/2000/svg" width="148" height="45" viewBox="0 0 148 45"><rect width="148" height="45" rx="5" fill="#474747"/><g transform="translate(-544 -999)"><text transform="translate(593 1027)" fill="#fff" font-size="14" font-family="NeueEinstellung-Medium, Neue Einstellung" font-weight="500"><tspan x="0" y="0">animatie</tspan></text><path d="M27.045-5.249a8.677,8.677,0,0,0-1.221-4.5,9.18,9.18,0,0,0-3.287-3.282A8.712,8.712,0,0,0,18.03-14.25H9.015a8.712,8.712,0,0,0-4.508,1.219A9.18,9.18,0,0,0,1.221-9.75,8.677,8.677,0,0,0,0-5.249a8.677,8.677,0,0,0,1.221,4.5A9.18,9.18,0,0,0,4.508,2.533,8.712,8.712,0,0,0,9.015,3.752H18.03a8.712,8.712,0,0,0,4.508-1.219A9.18,9.18,0,0,0,25.825-.749,8.677,8.677,0,0,0,27.045-5.249ZM18.03-12a6.534,6.534,0,0,1,3.381.914,6.885,6.885,0,0,1,2.465,2.461,6.508,6.508,0,0,1,.916,3.375,6.508,6.508,0,0,1-.916,3.375A6.885,6.885,0,0,1,21.411.587,6.534,6.534,0,0,1,18.03,1.5,6.534,6.534,0,0,1,14.65.587a6.885,6.885,0,0,1-2.465-2.461,6.508,6.508,0,0,1-.916-3.375,6.508,6.508,0,0,1,.916-3.375,6.885,6.885,0,0,1,2.465-2.461A6.534,6.534,0,0,1,18.03-12Z" transform="translate(556 1027.25)" fill="#fff"/><path d="M27.045-5.249a8.677,8.677,0,0,0-1.221-4.5,9.18,9.18,0,0,0-3.287-3.282A8.712,8.712,0,0,0,18.03-14.25H9.015a8.712,8.712,0,0,0-4.508,1.219A9.18,9.18,0,0,0,1.221-9.75,8.677,8.677,0,0,0,0-5.249a8.677,8.677,0,0,0,1.221,4.5A9.18,9.18,0,0,0,4.508,2.533,8.712,8.712,0,0,0,9.015,3.752H18.03a8.712,8.712,0,0,0,4.508-1.219A9.18,9.18,0,0,0,25.825-.749,8.677,8.677,0,0,0,27.045-5.249ZM18.03-12a6.534,6.534,0,0,1,3.381.914,6.885,6.885,0,0,1,2.465,2.461,6.508,6.508,0,0,1,.916,3.375,6.508,6.508,0,0,1-.916,3.375A6.885,6.885,0,0,1,21.411.587,6.534,6.534,0,0,1,18.03,1.5,6.534,6.534,0,0,1,14.65.587a6.885,6.885,0,0,1-2.465-2.461,6.508,6.508,0,0,1-.916-3.375,6.508,6.508,0,0,1,.916-3.375,6.885,6.885,0,0,1,2.465-2.461A6.534,6.534,0,0,1,18.03-12Z" transform="translate(556 1027.25)" fill="#fff"/></g></svg>