<svg xmlns="http://www.w3.org/2000/svg" width="148" height="45" viewBox="0 0 148 45"><rect width="148" height="45" rx="5" fill="none"/><g transform="translate(-544 -999)"><path d="M18-18a8.687,8.687,0,0,1,4.5,1.219A9.172,9.172,0,0,1,25.781-13.5,8.687,8.687,0,0,1,27-9a8.687,8.687,0,0,1-1.219,4.5A9.172,9.172,0,0,1,22.5-1.219,8.687,8.687,0,0,1,18,0H9A8.687,8.687,0,0,1,4.5-1.219,9.172,9.172,0,0,1,1.219-4.5,8.687,8.687,0,0,1,0-9a8.687,8.687,0,0,1,1.219-4.5A9.172,9.172,0,0,1,4.5-16.781,8.687,8.687,0,0,1,9-18ZM2.25-9a6.515,6.515,0,0,0,.914,3.375A6.879,6.879,0,0,0,5.625-3.164,6.515,6.515,0,0,0,9-2.25a6.515,6.515,0,0,0,3.375-.914,6.879,6.879,0,0,0,2.461-2.461A6.515,6.515,0,0,0,15.75-9a6.515,6.515,0,0,0-.914-3.375,6.879,6.879,0,0,0-2.461-2.461A6.515,6.515,0,0,0,9-15.75a6.515,6.515,0,0,0-3.375.914,6.879,6.879,0,0,0-2.461,2.461A6.515,6.515,0,0,0,2.25-9ZM18-2.25a6.515,6.515,0,0,0,3.375-.914,6.879,6.879,0,0,0,2.461-2.461A6.515,6.515,0,0,0,24.75-9a6.515,6.515,0,0,0-.914-3.375,6.879,6.879,0,0,0-2.461-2.461A6.515,6.515,0,0,0,18-15.75H14.953a8.8,8.8,0,0,1,2.719,4.266,8.954,8.954,0,0,1,0,4.969A8.8,8.8,0,0,1,14.953-2.25Z" transform="translate(556 1031)" fill="#c9ccd5"/><text transform="translate(593 1027)" fill="#c9ccd5" font-size="14" font-family="NeueEinstellung-Medium, Neue Einstellung" font-weight="500"><tspan x="0" y="0">animatie</tspan></text></g></svg>