<svg xmlns="http://www.w3.org/2000/svg" width="50" height="68.5" viewBox="0 0 50 68.5"><g transform="translate(-138 -355)"><text transform="translate(163 419.5)" fill="#474747" font-size="14" font-family="NeueEinstellung-Medium, Neue Einstellung" font-weight="500"><tspan x="-24.444" y="0">module</tspan></text><rect width="46" height="46" rx="5" transform="translate(140 355)" fill="none"/><g transform="translate(-255 -81.5)"><g transform="translate(-368 301.5)"><rect width="14" height="14" transform="translate(769 161)" fill="#fff" stroke="#fff" stroke-linejoin="round" stroke-width="2"/><rect width="14" height="14" transform="translate(789 161)" fill="#fff" stroke="#fff" stroke-linejoin="round" stroke-width="2"/><rect width="14" height="14" transform="translate(789 141)" fill="#fff" stroke="#fff" stroke-linejoin="round" stroke-width="2"/><rect width="14" height="14" transform="translate(769 141)" fill="#fff" stroke="#fff" stroke-linejoin="round" stroke-width="2"/></g><g transform="translate(-60.5 -137)"><path d="M461.5,615.64V608.5h14.28v14.28H461.5Z" transform="translate(0 -9.28)" fill="none" stroke="#474747" stroke-linecap="round" stroke-linejoin="round" stroke-miterlimit="10" stroke-width="2"/><path d="M468.64,579.5h7.14v14.28H461.5V579.5Z" fill="none" stroke="#474747" stroke-linecap="round" stroke-linejoin="round" stroke-miterlimit="10" stroke-width="2"/><path d="M490.5,615.64V608.5h14.28v7.14" transform="translate(-9.28 -9.28)" fill="none" stroke="#474747" stroke-linecap="round" stroke-linejoin="round" stroke-miterlimit="10" stroke-width="2"/><path d="M501,629.5" transform="translate(-12.64 -16)" fill="none" stroke="#ecf0ef" stroke-linecap="round" stroke-miterlimit="10" stroke-width="2"/><path d="M501,579.5" transform="translate(-12.64)" fill="none" stroke="#ecf0ef" stroke-linecap="round" stroke-miterlimit="10" stroke-width="2"/><path d="M504.78,590v7.14H490.5V590" transform="translate(-9.28 -3.36)" fill="none" stroke="#474747" stroke-linecap="round" stroke-linejoin="round" stroke-miterlimit="10" stroke-width="2"/><g transform="translate(481.22 579.5)"><path d="M509.9,624.5v3.4h-3.4" transform="translate(-495.62 -593.9)" fill="none" stroke="#de4f61" stroke-linecap="round" stroke-linejoin="round" stroke-width="2"/><path d="M493.9,627.9h-3.4v-3.4" transform="translate(-490.5 -593.9)" fill="none" stroke="#de4f61" stroke-linecap="round" stroke-linejoin="round" stroke-width="2"/><path d="M490.5,582.9v-3.4h3.4" transform="translate(-490.5 -579.5)" fill="none" stroke="#de4f61" stroke-linecap="round" stroke-linejoin="round" stroke-width="2"/><path d="M506.5,579.5h3.4v3.4" transform="translate(-495.62 -579.5)" fill="none" stroke="#de4f61" stroke-linecap="round" stroke-linejoin="round" stroke-width="2"/></g></g></g></g></svg>