<svg xmlns="http://www.w3.org/2000/svg" width="46" height="68.5" viewBox="0 0 46 68.5"><g transform="translate(-1063 -135.5)"><path d="M5,0H41a5,5,0,0,1,5,5V41a5,5,0,0,1-5,5H5a5,5,0,0,1-5-5V5A5,5,0,0,1,5,0Z" transform="translate(1063 135.5)" fill="none"/><text transform="translate(1086 200)" fill="#474747" font-size="14" font-family="NeueEinstellung-Medium, Neue Einstellung" font-weight="500"><tspan x="-17.759" y="0">menu</tspan></text><g transform="translate(18 -105)"><g transform="translate(1051 246)"><path d="M859.878,579.5h17v34.259h-34V579.5Z" transform="translate(-842.878 -579.5)" fill="#fff" stroke="#474747" stroke-linecap="round" stroke-linejoin="round" stroke-miterlimit="10" stroke-width="2"/></g><g transform="translate(1056 253.26)"><path d="M0,0H24" transform="translate(0 4.76)" fill="none" stroke="#de4f61" stroke-linecap="round" stroke-width="2"/><line x2="24" transform="translate(0 0)" fill="none" stroke="#de4f61" stroke-linecap="round" stroke-linejoin="round" stroke-width="2"/></g><g transform="translate(1056 263.26)"><path d="M0,0H24" transform="translate(0 4.76)" fill="none" stroke="#de4f61" stroke-linecap="round" stroke-width="2"/><line x2="24" transform="translate(0 0)" fill="none" stroke="#de4f61" stroke-linecap="round" stroke-linejoin="round" stroke-width="2"/></g></g></g></svg>