<svg xmlns="http://www.w3.org/2000/svg" width="135" height="45" viewBox="0 0 135 45"><rect width="135" height="45" rx="5" fill="#f0eff3"/><g transform="translate(-544 -999)"><path d="M12-20.625a11.269,11.269,0,0,1,5.812,1.57,11.747,11.747,0,0,1,4.242,4.242A11.269,11.269,0,0,1,23.625-9a11.269,11.269,0,0,1-1.57,5.812,11.747,11.747,0,0,1-4.242,4.242A11.269,11.269,0,0,1,12,2.625a11.269,11.269,0,0,1-5.812-1.57A11.747,11.747,0,0,1,1.945-3.187,11.269,11.269,0,0,1,.375-9a11.269,11.269,0,0,1,1.57-5.812,11.747,11.747,0,0,1,4.242-4.242A11.269,11.269,0,0,1,12-20.625Zm0,21A9.1,9.1,0,0,0,16.687-.891a9.454,9.454,0,0,0,3.422-3.422A9.1,9.1,0,0,0,21.375-9a9.1,9.1,0,0,0-1.266-4.687,9.454,9.454,0,0,0-3.422-3.422A9.1,9.1,0,0,0,12-18.375a9.1,9.1,0,0,0-4.687,1.266,9.454,9.454,0,0,0-3.422,3.422A9.1,9.1,0,0,0,2.625-9,9.1,9.1,0,0,0,3.891-4.312,9.454,9.454,0,0,0,7.312-.891,9.1,9.1,0,0,0,12,.375Zm0-15.844a1.891,1.891,0,0,1,1.383.586,1.891,1.891,0,0,1,.586,1.383,1.891,1.891,0,0,1-.586,1.383A1.891,1.891,0,0,1,12-11.531a1.891,1.891,0,0,1-1.383-.586,1.891,1.891,0,0,1-.586-1.383,1.891,1.891,0,0,1,.586-1.383A1.891,1.891,0,0,1,12-15.469ZM14.625-3.562a.542.542,0,0,1-.164.4.542.542,0,0,1-.4.164H9.937a.542.542,0,0,1-.4-.164.542.542,0,0,1-.164-.4V-4.687a.542.542,0,0,1,.164-.4.542.542,0,0,1,.4-.164H10.5v-3H9.937a.542.542,0,0,1-.4-.164.542.542,0,0,1-.164-.4V-9.937a.542.542,0,0,1,.164-.4.542.542,0,0,1,.4-.164h3a.542.542,0,0,1,.4.164.542.542,0,0,1,.164.4V-5.25h.562a.542.542,0,0,1,.4.164.542.542,0,0,1,.164.4Z" transform="translate(556 1031)" fill="#474747"/><text transform="translate(590 1027)" fill="#474747" font-size="14" font-family="NeueEinstellung-Medium, Neue Einstellung" font-weight="500"><tspan x="0" y="0">kenmerken</tspan></text></g></svg>