<svg xmlns="http://www.w3.org/2000/svg" width="46" height="68.5" viewBox="0 0 46 68.5"><g transform="translate(-140 -355)" opacity="0.502"><text transform="translate(163 419.5)" fill="#474747" font-size="14" font-family="NeueEinstellung-Medium, Neue Einstellung" font-weight="500"><tspan x="-21.924" y="0">corpus</tspan></text><rect width="46" height="46" rx="5" transform="translate(140 355)" fill="#fff" opacity="0"/><g transform="translate(-623 220)"><rect width="14" height="14" transform="translate(769 161)" fill="#fff" stroke="#fff" stroke-linejoin="round" stroke-width="2"/><rect width="14" height="14" transform="translate(789 161)" fill="#fff" stroke="#fff" stroke-linejoin="round" stroke-width="2"/><rect width="14" height="14" transform="translate(789 141)" fill="#fff" stroke="#fff" stroke-linejoin="round" stroke-width="2"/><rect width="14" height="14" transform="translate(769 141)" fill="#fff" stroke="#fff" stroke-linejoin="round" stroke-width="2"/></g><g transform="translate(-442.5 -218.5)"><path d="M588.5,615.64V608.5h14.28v14.28H588.5Z" transform="translate(0 -9.28)" fill="none" stroke="#c9ccd5" stroke-linecap="round" stroke-linejoin="round" stroke-miterlimit="10" stroke-width="2"/><path d="M595.64,579.5h7.14v14.28H588.5V579.5Z" fill="none" stroke="#c9ccd5" stroke-linecap="round" stroke-linejoin="round" stroke-miterlimit="10" stroke-width="2"/><path d="M617.5,615.64V608.5h14.28v14.28H617.5Z" transform="translate(-9.28 -9.28)" fill="none" stroke="#c9ccd5" stroke-linecap="round" stroke-linejoin="round" stroke-miterlimit="10" stroke-width="2"/><path d="M628,629.5" transform="translate(-12.64 -16)" fill="none" stroke="#c9ccd5" stroke-linecap="round" stroke-miterlimit="10" stroke-width="2"/><path d="M628,579.5" transform="translate(-12.64)" fill="none" stroke="#c9ccd5" stroke-linecap="round" stroke-miterlimit="10" stroke-width="2"/><g transform="translate(608.22 579.5)"><path d="M636.9,595.5v3.4h-3.4" transform="translate(-622.62 -584.62)" fill="none" stroke="#c9ccd5" stroke-linecap="round" stroke-linejoin="round" stroke-width="2"/><path d="M620.9,598.9h-3.4v-3.4" transform="translate(-617.5 -584.62)" fill="none" stroke="#c9ccd5" stroke-linecap="round" stroke-linejoin="round" stroke-width="2"/><path d="M617.5,582.9v-3.4h3.4" transform="translate(-617.5 -579.5)" fill="none" stroke="#c9ccd5" stroke-linecap="round" stroke-linejoin="round" stroke-width="2"/><path d="M633.5,579.5h3.4v3.4" transform="translate(-622.62 -579.5)" fill="none" stroke="#c9ccd5" stroke-linecap="round" stroke-linejoin="round" stroke-width="2"/></g></g></g></svg>