<svg xmlns="http://www.w3.org/2000/svg" width="66" height="68.5" viewBox="0 0 66 68.5"><g transform="translate(-130 -355)"><text transform="translate(163 419.5)" fill="#474747" font-size="14" font-family="NeueEinstellung-Medium, Neue Einstellung" font-weight="500"><tspan x="-32.116" y="0">opstelling</tspan></text><rect width="46" height="46" rx="5" transform="translate(140 355)" fill="#c9ccd5"/><g transform="translate(-135 0.5)"><g transform="translate(-388 219.5)"><rect width="14" height="14" transform="translate(669 161)" fill="#fff" stroke="#fff" stroke-linejoin="round" stroke-width="2"/><rect width="14" height="14" transform="translate(689 161)" fill="#fff" stroke="#fff" stroke-linejoin="round" stroke-width="2"/><rect width="14" height="14" transform="translate(689 141)" fill="#fff" stroke="#fff" stroke-linejoin="round" stroke-width="2"/><rect width="14" height="14" transform="translate(669 141)" fill="#fff" stroke="#fff" stroke-linejoin="round" stroke-width="2"/></g><g transform="translate(-55.5 -219)"><path d="M336.5,615.64V608.5h14.28v14.28h-7.14" transform="translate(0 -9.28)" fill="none" stroke="#474747" stroke-linecap="round" stroke-linejoin="round" stroke-miterlimit="10" stroke-width="2"/><path d="M343.64,579.5h7.14v14.28H336.5v-7.14" fill="none" stroke="#474747" stroke-linecap="round" stroke-linejoin="round" stroke-miterlimit="10" stroke-width="2"/><path d="M372.64,622.78H365.5V608.5h14.28v7.14" transform="translate(-9.28 -9.28)" fill="none" stroke="#474747" stroke-linecap="round" stroke-linejoin="round" stroke-miterlimit="10" stroke-width="2"/><path d="M379.78,586.64v7.14H365.5V579.5h7.14" transform="translate(-9.28)" fill="none" stroke="#474747" stroke-linecap="round" stroke-linejoin="round" stroke-miterlimit="10" stroke-width="2"/><g transform="translate(336.5 579.5)"><path d="M384.9,624.5v3.4h-3.4" transform="translate(-350.9 -593.9)" fill="none" stroke="#de4f61" stroke-linecap="round" stroke-linejoin="round" stroke-width="2"/><path d="M339.9,627.9h-3.4v-3.4" transform="translate(-336.5 -593.9)" fill="none" stroke="#de4f61" stroke-linecap="round" stroke-linejoin="round" stroke-width="2"/><path d="M336.5,582.9v-3.4h3.4" transform="translate(-336.5 -579.5)" fill="none" stroke="#de4f61" stroke-linecap="round" stroke-linejoin="round" stroke-width="2"/><path d="M381.5,579.5h3.4v3.4" transform="translate(-350.9 -579.5)" fill="none" stroke="#de4f61" stroke-linecap="round" stroke-linejoin="round" stroke-width="2"/></g></g></g></g></svg>