<svg xmlns="http://www.w3.org/2000/svg" width="62" height="68.5" viewBox="0 0 62 68.5"><g transform="translate(-132 -355)"><text transform="translate(163 419.5)" fill="#9a9a9c" font-size="14" font-family="NeueEinstellung-Medium, Neue Einstellung" font-weight="500"><tspan x="-30.044" y="0">overzicht</tspan></text><rect width="46" height="46" rx="5" transform="translate(140 355)" fill="none"/><path d="M32.772,39.095,47.613,25.441a2.541,2.541,0,0,1,3.517.073L64.779,39.164l.7.7V59.986H52.327V47.431H45.153V59.986H32V39.805ZM49.335,27.162c-.021,0-.008,0,0,.013C49.345,27.166,49.356,27.162,49.335,27.162ZM34.391,57.594h8.37V47.431a2.391,2.391,0,0,1,2.391-2.391h7.174a2.391,2.391,0,0,1,2.391,2.391V57.594h8.37V40.855L49.335,27.206l0,0L34.391,40.855Z" transform="translate(114.521 335.244)" fill="#dcdde3"/></g></svg>