<svg xmlns="http://www.w3.org/2000/svg" width="46" height="68.5" viewBox="0 0 46 68.5"><g transform="translate(-1063 -135.5)"><path d="M5,0H41a5,5,0,0,1,5,5V41a5,5,0,0,1-5,5H5a5,5,0,0,1-5-5V5A5,5,0,0,1,5,0Z" transform="translate(1063 135.5)" fill="#c9ccd5"/><text transform="translate(1086 200)" fill="#474747" font-size="14" font-family="NeueEinstellung-Medium, Neue Einstellung" font-weight="500"><tspan x="-15.4" y="0">front</tspan></text><g transform="translate(18 -105)"><g transform="translate(1051 246)"><path d="M850.072,579.5h7.194v34.259H842.878V579.5Z" transform="translate(-842.878 -579.5)" fill="#fff" stroke="#474747" stroke-linecap="round" stroke-linejoin="round" stroke-miterlimit="10" stroke-width="2"/><path d="M871.5,586.694V579.5h14.389v34.259H871.5Z" transform="translate(-851.889 -579.5)" fill="#fff" stroke="#de4f61" stroke-linecap="round" stroke-linejoin="round" stroke-width="2"/></g></g></g></svg>